<svg id="icon-send" xmlns="http://www.w3.org/2000/svg" width="24" height="24" viewBox="0 0 24 24">
  <circle id="Ellipse_3" data-name="Ellipse 3" cx="12" cy="12" r="12" fill="#3e2753"/>
  <path id="Path_1" data-name="Path 1" d="M6.68-4.1,2.133.445a.542.542,0,0,1-.4.164.542.542,0,0,1-.4-.164L.82-.07a.586.586,0,0,1-.176-.4A.5.5,0,0,1,.8-.867L4.43-4.5.8-8.133a.5.5,0,0,1-.152-.4.586.586,0,0,1,.176-.4l.516-.516a.542.542,0,0,1,.4-.164.542.542,0,0,1,.4.164L6.68-4.9a.511.511,0,0,1,.188.4A.511.511,0,0,1,6.68-4.1Z" transform="translate(8.856 16.609)" fill="#fff"/>
</svg>
